<?xml version="1.0" encoding="utf-8"?>
<!-- Generator: Adobe Illustrator 21.1.0, SVG Export Plug-In . SVG Version: 6.00 Build 0)  -->
<svg version="1.1" id="Layer_1" xmlns="http://www.w3.org/2000/svg" xmlns:xlink="http://www.w3.org/1999/xlink" x="0px" y="0px"
	 viewBox="0 0 1000 200" style="enable-background:new 0 0 1000 200;" xml:space="preserve">
<style type="text/css">
	.st0{fill:#FFFFFF;}
	.st1{fill:#114754;}
	.st2{fill:#F25451;}
</style>
<path class="st0" d="M115.1,70c5.7,6.1,8.6,14.6,8.6,25.5v45.9c0,2.4-0.7,4.3-2.2,5.9c-1.5,1.6-3.5,2.3-5.9,2.3
	c-2.4,0-4.3-0.8-5.9-2.3c-1.6-1.6-2.3-3.5-2.3-5.9V95.5c0-6.5-1.6-11.5-4.9-14.8c-3.3-3.4-7.6-5.1-13.1-5.1
	c-5.6,0-10.1,1.9-13.7,5.8c-3.6,3.9-5.4,8.8-5.4,14.8v45.3c0,2.4-0.8,4.3-2.2,5.9c-1.5,1.6-3.5,2.3-5.9,2.3c-2.4,0-4.3-0.8-5.9-2.3
	c-1.6-1.6-2.3-3.5-2.3-5.9V95.5c0-6.5-1.6-11.5-4.9-14.8c-3.3-3.4-7.6-5.1-13.1-5.1c-5.7,0-10.3,1.9-13.9,5.8
	c-3.6,3.9-5.4,8.8-5.4,14.8v45.3c0,2.4-0.8,4.3-2.2,5.9c-1.5,1.6-3.5,2.3-5.9,2.3c-2.4,0-4.3-0.8-5.9-2.3c-1.6-1.6-2.3-3.5-2.3-5.9
	V70c0-2.5,0.8-4.4,2.3-5.9c1.6-1.5,3.5-2.2,5.9-2.2c2.4,0,4.3,0.7,5.8,2.2c1.5,1.4,2.3,3.3,2.4,5.7c2.8-2.8,6.1-4.9,10-6.5
	c3.9-1.5,8-2.3,12.5-2.3c5.5,0,10.4,1.1,14.7,3.3c4.3,2.2,7.9,5.3,10.7,9.4c3.2-4,7.2-7.1,12-9.3c4.8-2.2,10.2-3.4,16.1-3.4
	C101.8,60.8,109.4,63.9,115.1,70z"/>
<path class="st0" d="M167.7,144.4c-6.7-3.8-12-9.1-15.7-15.8c-3.7-6.7-5.6-14.4-5.6-23c0-8.7,1.9-16.4,5.6-23.1
	c3.7-6.7,9-12,15.7-15.8c6.7-3.8,14.4-5.7,23-5.7c8.5,0,16,1.9,22.7,5.7c6.7,3.8,11.9,9.1,15.7,15.8c3.8,6.7,5.7,14.4,5.7,23.1
	c0,8.6-1.9,16.2-5.6,23c-3.7,6.7-9,12-15.7,15.8c-6.7,3.8-14.3,5.7-22.9,5.7C182.1,150.1,174.4,148.2,167.7,144.4z M205.3,131.8
	c4.3-2.6,7.7-6.1,10.1-10.7c2.4-4.5,3.6-9.7,3.6-15.5c0-5.8-1.2-11-3.6-15.6c-2.4-4.6-5.8-8.2-10.1-10.8c-4.3-2.6-9.2-3.9-14.7-3.9
	s-10.4,1.3-14.7,3.9c-4.3,2.6-7.7,6.2-10.2,10.8c-2.5,4.6-3.7,9.8-3.7,15.6c0,5.8,1.2,10.9,3.7,15.5c2.5,4.6,5.9,8.1,10.2,10.7
	s9.2,3.9,14.7,3.9S201,134.4,205.3,131.8z"/>
<path class="st0" d="M322.7,65.7c5.9,3.2,10.5,7.9,13.8,14c3.3,6.2,5,13.6,5,22.2v39.5c0,2.4-0.8,4.3-2.3,5.9
	c-1.6,1.6-3.5,2.3-5.9,2.3c-2.4,0-4.3-0.8-5.9-2.3c-1.6-1.6-2.3-3.5-2.3-5.9v-39.5c0-8.7-2.3-15.2-7-19.7
	c-4.7-4.4-10.8-6.7-18.5-6.7c-4.5,0-8.6,0.9-12.3,2.7c-3.7,1.8-6.6,4.3-8.7,7.4c-2.1,3.1-3.1,6.6-3.1,10.4v45.3
	c0,2.4-0.8,4.3-2.2,5.9c-1.5,1.6-3.5,2.3-5.9,2.3c-2.4,0-4.3-0.8-5.9-2.3c-1.6-1.6-2.3-3.5-2.3-5.9V69.8c0-2.5,0.8-4.4,2.3-5.9
	c1.6-1.5,3.5-2.2,5.9-2.2c2.5,0,4.4,0.8,5.9,2.2c1.5,1.5,2.2,3.5,2.2,5.9v1.8c3.4-3.4,7.5-6.1,12.2-7.9c4.7-1.9,9.7-2.8,15.1-2.8
	C310.2,60.8,316.8,62.4,322.7,65.7z"/>
<path class="st0" d="M445.4,109.2c-1.4,1.3-3.2,2-5.3,2h-61c1.2,7.5,4.6,13.5,10.2,18.1c5.6,4.6,12.5,6.9,20.6,6.9
	c3.2,0,6.6-0.6,10-1.8c3.5-1.2,6.3-2.6,8.6-4.3c1.5-1.2,3.3-1.8,5.3-1.8c2,0,3.6,0.5,4.8,1.6c1.9,1.6,2.9,3.4,2.9,5.5
	c0,1.9-0.9,3.5-2.6,4.8c-3.6,2.9-8.2,5.2-13.6,7.1c-5.4,1.8-10.6,2.7-15.5,2.7c-8.8,0-16.6-1.9-23.6-5.7c-7-3.8-12.4-9.1-16.3-15.8
	c-3.9-6.7-5.9-14.4-5.9-23c0-8.6,1.8-16.2,5.5-23c3.7-6.8,8.8-12.1,15.4-15.9c6.6-3.8,14-5.7,22.4-5.7c8.2,0,15.4,1.8,21.4,5.5
	c6,3.6,10.6,8.7,13.8,15.2c3.2,6.5,4.8,14,4.8,22.5C447.5,106.2,446.8,107.9,445.4,109.2z M388.5,81.2c-4.9,4.3-7.9,10-9.2,17.2
	h53.5c-1-7.2-3.6-12.9-8-17.2c-4.4-4.3-10.1-6.4-17.2-6.4C399.7,74.8,393.3,77,388.5,81.2z"/>
<path class="st0" d="M540.4,68.7c0,1.1-0.3,2.4-1,3.9L490.3,183c-1.3,3.3-3.4,5-6.3,5c-1.1,0-2.4-0.3-3.9-1
	c-3.2-1.4-4.8-3.5-4.8-6.3c0-1.3,0.3-2.6,1-3.9l16.1-36.1l-36.1-68.5c-0.5-1-0.8-2.1-0.8-3.4c0-1.4,0.4-2.7,1.3-3.9
	c0.9-1.2,2-2.1,3.4-2.7c1-0.4,2-0.6,3.2-0.6c3,0,5.2,1.5,6.7,4.5l29.4,58.4l25.8-58.3c1.4-3.1,3.5-4.7,6.3-4.7
	c1.4,0,2.7,0.3,3.9,0.8C538.7,63.7,540.4,65.8,540.4,68.7z"/>
<path class="st1" d="M598.1,141c0.9,0.9,1.4,2.1,1.4,3.6c0,1.4-0.5,2.5-1.4,3.5c-0.9,0.9-2.1,1.4-3.6,1.4h-3.7
	c-5.9,0-11.1-1.3-15.7-4c-4.6-2.7-8.2-6.3-10.8-11s-3.9-9.9-3.9-15.8V73.5H548c-1.3,0-2.3-0.4-3.1-1.2s-1.2-1.8-1.2-3.1
	s0.4-2.3,1.2-3.1s1.8-1.2,3.1-1.2h12.5V38.7c0-1.5,0.5-2.7,1.4-3.6c0.9-0.9,2.1-1.4,3.5-1.4c1.5,0,2.7,0.5,3.6,1.4
	c0.9,0.9,1.4,2.1,1.4,3.6v26.2h21.2c1.3,0,2.3,0.4,3.1,1.2s1.2,1.8,1.2,3.1s-0.4,2.3-1.2,3.1s-1.8,1.2-3.1,1.2h-21.2v45.1
	c0,6.2,1.9,11.3,5.8,15.2c3.9,3.9,8.8,5.9,14.9,5.9h3.5C596,139.7,597.2,140.1,598.1,141z"/>
<path class="st1" d="M622.1,41c-1.4-1.4-2.1-3.2-2.1-5.4c0-2.4,0.7-4.2,2.2-5.5c1.5-1.3,3.3-1.9,5.3-1.9c2,0,3.8,0.6,5.2,1.9
	s2.2,3.1,2.2,5.5c0,2.1-0.7,3.9-2.2,5.4c-1.4,1.4-3.2,2.2-5.4,2.2C625.3,43.2,623.5,42.5,622.1,41z M624.1,148.1
	c-0.9-0.9-1.4-2.1-1.4-3.5V66.5c0-1.5,0.5-2.7,1.4-3.5c0.9-0.9,2.1-1.3,3.5-1.3c1.5,0,2.7,0.4,3.5,1.3c0.9,0.9,1.3,2,1.3,3.5v78.2
	c0,1.4-0.4,2.5-1.3,3.5c-0.9,0.9-2,1.4-3.5,1.4C626.2,149.5,625,149,624.1,148.1z"/>
<path class="st1" d="M774.3,65.3c5,3.2,8.9,7.7,11.7,13.4c2.8,5.7,4.2,12.2,4.2,19.5v46.4c0,1.4-0.4,2.5-1.3,3.5
	c-0.9,0.9-2,1.4-3.5,1.4c-1.4,0-2.5-0.5-3.5-1.4c-0.9-0.9-1.4-2.1-1.4-3.5V98.2c0-8.2-2.2-15-6.6-20.2c-4.4-5.2-10-7.9-16.9-7.9
	c-7.5,0-13.5,2.5-18.1,7.4c-4.6,4.9-6.8,11.5-6.6,19.6v1.1v46.4c0,1.4-0.4,2.5-1.3,3.5c-0.9,0.9-2,1.4-3.5,1.4
	c-1.4,0-2.5-0.5-3.5-1.4c-0.9-0.9-1.4-2.1-1.4-3.5V98.2c0-8.2-2.2-15-6.6-20.2c-4.4-5.2-10-7.9-16.9-7.9c-7.4,0-13.4,2.4-18.1,7.1
	c-4.7,4.7-7.1,10.8-7.1,18.3v49.1c0,1.4-0.4,2.5-1.3,3.5c-0.9,0.9-2,1.4-3.5,1.4c-1.4,0-2.5-0.5-3.5-1.4c-0.9-0.9-1.4-2.1-1.4-3.5
	V66.5c0-1.5,0.5-2.7,1.4-3.5c0.9-0.9,2.1-1.3,3.5-1.3c1.5,0,2.7,0.4,3.5,1.3c0.9,0.9,1.3,2,1.3,3.5v6.3c3-3.9,6.7-6.8,11.1-9
	c4.4-2.1,9.1-3.2,14.1-3.2c6.2,0,11.8,1.5,16.7,4.6c4.9,3,8.8,7.3,11.7,12.6c2.9-5.4,6.9-9.6,12-12.6c5.1-3.1,10.9-4.6,17.3-4.6
	C763.5,60.5,769.3,62.1,774.3,65.3z"/>
<path class="st1" d="M874.9,66.4c6.2,3.7,10.9,8.8,14.4,15.3c3.4,6.5,5.1,14,5.1,22.3c0,1.4-0.4,2.5-1.3,3.3c-0.9,0.8-2,1.2-3.4,1.2
	h-67.3c0.3,6.3,2,12,5,16.9c3,5,7,8.9,12,11.6c5,2.8,10.6,4.2,16.9,4.2c4.2,0,8.4-0.7,12.6-2.2c4.2-1.4,7.6-3.3,10-5.7
	c1.1-0.9,2.2-1.3,3.4-1.3c1.2,0,2.1,0.3,2.9,1c1.2,1,1.8,2.1,1.8,3.4c0,1.1-0.5,2.1-1.4,3c-3.4,3.1-7.9,5.7-13.4,7.7
	c-5.5,2-10.8,3-15.8,3c-8.5,0-16-1.9-22.6-5.7c-6.6-3.8-11.7-9.1-15.5-15.9c-3.7-6.8-5.6-14.5-5.6-23c0-8.7,1.7-16.4,5.2-23.2
	c3.5-6.8,8.3-12.1,14.6-15.9c6.3-3.8,13.4-5.7,21.4-5.7C861.7,60.8,868.7,62.7,874.9,66.4z M832.8,78.2c-5.7,5.6-9.1,12.9-10.2,22
	h62.4c-0.8-9.1-4-16.4-9.6-22c-5.7-5.6-12.8-8.3-21.5-8.3C845.6,69.8,838.5,72.6,832.8,78.2z"/>
<path class="st2" d="M912.1,148.7c-2.2-2.2-3.3-4.8-3.3-7.8c0-3.1,1.1-5.8,3.3-7.9c2.2-2.2,4.8-3.3,7.8-3.3c3,0,5.6,1.1,7.8,3.3
	c2.2,2.2,3.3,4.8,3.3,7.9c0,3-1.1,5.6-3.2,7.8c-2.1,2.2-4.8,3.3-7.9,3.3C916.9,152,914.3,150.9,912.1,148.7z"/>
</svg>
